# xmcd
#
# Track frame offsets:
#	150
#	14077
#	31105
#	42892
#	57012
#	72120
#	89775
#	103265
#	116030
#	132832
#
# Disc length: 2018 seconds
#
# Revision: 0
# Processed by: cddbd v1.4PL0 Copyright (c) Steve Scherf et al.
# Submitted via: dBpowerAMP V4.0
#
DISCID=8907e00a
DTITLE=Dan Rogers - Still Running
DYEAR=1900
DGENRE=
TTITLE0=Just A Kid From Texas
TTITLE1=Oh Love Hold On
TTITLE2=We've Gotta Stop Meeting Like This
TTITLE3=Shoulda Stayes On The River
TTITLE4=Only One Girl
TTITLE5=Still Runnin'
TTITLE6=Let's Take It Easy Awhile
TTITLE7=Wounded Heart
TTITLE8=If It Takes All Night
TTITLE9=Someday We Will 
EXTD=
EXTT0=
EXTT1=
EXTT2=
EXTT3=
EXTT4=
EXTT5=
EXTT6=
EXTT7=
EXTT8=
EXTT9=
PLAYORDER=
